# xmcd
#
# Track frame offsets: 
#        150
#        19368
#        33762
#        54519
#        70521
#        83121
#        95954
#        114596
#        130848
#        148064
#        161771
#        179978
#        197178
#        222021
#        233670
#        250153
#        267801
#
# Disc length: 3791 seconds
#
# Revision: 2
# Processed by: cddbd v1.5.2PL0 Copyright (c) Steve Scherf et al.
# Submitted via: ExactAudioCopyFreeDBPlugin 1.0
#
DISCID=f70ecd11
DTITLE=Various Artist - Deluxe Records - Let's go
DYEAR=2005
DGENRE=Hip-Hop
TTITLE0=Samy Deluxe, Eddy Soulo and Dashenn - Startschuss
TTITLE1=Illo and Samy Deluxe - Illo Anthem
TTITLE2=Samy Deluxe and Dashenn - Verlieb dich nie in ein' Rapper
TTITLE3=Headliners - Sag ihnen Bescheid
TTITLE4=Samy Deluxe - Let's go
TTITLE5=Samy Deluxe, Nep and Eddy Soulo - Beatbox Skit
TTITLE6=Samy Deluxe, Neo, Illo and Eddy Soulo - Extra Extra
TTITLE7=Illo and J-Luv - S.O.S. Liebe
TTITLE8=Samy Deluxe - Sorge Song
TTITLE9=Samy Deluxe, Neo and Dashenn - Dies ist HF
TTITLE10=Eddy Soulo and Neo - Ach was, Mama
TTITLE11=Samy Deluxe and Brooke Russell - Die Reise ist das Ziel
TTITLE12=Samy Deluxe, Neo and Dashenn - Schönste Frau
TTITLE13=Samy Deluxe - Warte ma Sam
TTITLE14=Illo and Rob Easy - DSB
TTITLE15=Headliners - Homie
TTITLE16=Samy Deluxe and Neo - Land in Sicht
EXTD=und Illo, Headliners
EXTT0=
EXTT1=
EXTT2=
EXTT3=
EXTT4=
EXTT5=
EXTT6=
EXTT7=
EXTT8=
EXTT9=
EXTT10=
EXTT11=
EXTT12=
EXTT13=
EXTT14=
EXTT15=
EXTT16=
PLAYORDER=
